<svg xmlns="http://www.w3.org/2000/svg" viewBox="0 0 770 252" width="770" height="252" role="img" aria-labelledby="t d">
<title id="t">Globální uhlíková bilance za rok 2023</title>
<desc id="d">Z fosilních paliv a cementu se uvolnilo 10,1 GtC a ze změn využití krajiny 1,0 GtC. V atmosféře zůstalo 5,9 GtC, oceán převzal 2,9 GtC a pevnina 2,3 GtC.</desc>
<rect width="770" height="252" fill="#ffffff"/>
<line x1="132" x2="132" y1="20" y2="216" stroke="#e4eae6" stroke-width="1"/><text x="132" y="234" font-family="Arial, Helvetica, sans-serif" font-size="12" fill="#567174" text-anchor="middle" font-weight="400">0</text><line x1="234.33333333333331" x2="234.33333333333331" y1="20" y2="216" stroke="#e4eae6" stroke-width="1"/><text x="234.33333333333331" y="234" font-family="Arial, Helvetica, sans-serif" font-size="12" fill="#567174" text-anchor="middle" font-weight="400">2</text><line x1="336.66666666666663" x2="336.66666666666663" y1="20" y2="216" stroke="#e4eae6" stroke-width="1"/><text x="336.66666666666663" y="234" font-family="Arial, Helvetica, sans-serif" font-size="12" fill="#567174" text-anchor="middle" font-weight="400">4</text><line x1="439" x2="439" y1="20" y2="216" stroke="#e4eae6" stroke-width="1"/><text x="439" y="234" font-family="Arial, Helvetica, sans-serif" font-size="12" fill="#567174" text-anchor="middle" font-weight="400">6</text><line x1="541.3333333333333" x2="541.3333333333333" y1="20" y2="216" stroke="#e4eae6" stroke-width="1"/><text x="541.3333333333333" y="234" font-family="Arial, Helvetica, sans-serif" font-size="12" fill="#567174" text-anchor="middle" font-weight="400">8</text><line x1="643.6666666666667" x2="643.6666666666667" y1="20" y2="216" stroke="#e4eae6" stroke-width="1"/><text x="643.6666666666667" y="234" font-family="Arial, Helvetica, sans-serif" font-size="12" fill="#567174" text-anchor="middle" font-weight="400">10</text><line x1="746" x2="746" y1="20" y2="216" stroke="#e4eae6" stroke-width="1"/><text x="746" y="234" font-family="Arial, Helvetica, sans-serif" font-size="12" fill="#567174" text-anchor="middle" font-weight="400">12</text><text x="746" y="250" font-family="Arial, Helvetica, sans-serif" font-size="12" fill="#567174" text-anchor="end" font-weight="400">GtC za rok</text><text x="0" y="71" font-family="Arial, Helvetica, sans-serif" font-size="14" fill="#153235" text-anchor="start" font-weight="700">Uvolněno</text><rect x="132" y="46" width="514.7833333333333" height="40" fill="#4a66b8"/><text x="389.39166666666665" y="71" font-family="Arial, Helvetica, sans-serif" font-size="14" fill="#ffffff" text-anchor="middle" font-weight="700">10,1</text><text x="134" y="37" font-family="Arial, Helvetica, sans-serif" font-size="12" fill="#153235" text-anchor="start" font-weight="400">Fosilní paliva a cement</text><path d="M648.7833333333333,46h47.16666666666663a4,4 0 0 1 4,4v32a4,4 0 0 1 -4,4h-47.16666666666663z" fill="#a9791c"/><text x="699.9499999999999" y="37" font-family="Arial, Helvetica, sans-serif" font-size="12" fill="#153235" text-anchor="end" font-weight="400">Změny využití krajiny: 1,0</text><text x="0" y="185" font-family="Arial, Helvetica, sans-serif" font-size="14" fill="#153235" text-anchor="start" font-weight="700">Kam uhlík odešel</text><rect x="132" y="160" width="299.8833333333333" height="40" fill="#c65b45"/><text x="281.94166666666666" y="185" font-family="Arial, Helvetica, sans-serif" font-size="14" fill="#ffffff" text-anchor="middle" font-weight="700">5,9</text><text x="134" y="151" font-family="Arial, Helvetica, sans-serif" font-size="12" fill="#153235" text-anchor="start" font-weight="400">Zůstal v atmosféře</text><rect x="433.8833333333333" y="160" width="146.38333333333333" height="40" fill="#0089a0"/><text x="507.075" y="185" font-family="Arial, Helvetica, sans-serif" font-size="14" fill="#ffffff" text-anchor="middle" font-weight="700">2,9</text><text x="435.8833333333333" y="151" font-family="Arial, Helvetica, sans-serif" font-size="12" fill="#153235" text-anchor="start" font-weight="400">Oceán</text><path d="M582.2666666666667,160h113.6833333333334a4,4 0 0 1 4,4v32a4,4 0 0 1 -4,4h-113.6833333333334z" fill="#5e9a2f"/><text x="641.1083333333333" y="185" font-family="Arial, Helvetica, sans-serif" font-size="14" fill="#ffffff" text-anchor="middle" font-weight="700">2,3</text><text x="584.2666666666667" y="151" font-family="Arial, Helvetica, sans-serif" font-size="12" fill="#153235" text-anchor="start" font-weight="400">Pevnina</text>
</svg>
